<svg xmlns="http://www.w3.org/2000/svg" viewBox="0 0 282.5 367.61"><defs><style>.cls-1{fill:#fff;}</style></defs><g id="Layer_2" data-name="Layer 2"><g id="Layer_5" data-name="Layer 5"><g id="Layer_4" data-name="Layer 4"><g id="Rotate"><g id="Rocket"><g id="Flame"><path class="cls-1" d="M108.92,305.9s45.38,51.29-53.12,61.71L70.61,342S107.13,343.64,108.92,305.9Z"/></g><g id="Body"><path class="cls-1" d="M105.3,281.87c2.61,1.3,24.25,14,24.25,14,16.08,6.45,40.9-26.64,43.28-27,0,0-7.14,44.37-2.11,57.66,6.62,16.53,13.71,40.25,34.41,16.41,12.6-14.53,41.49-41.87,48-57.13,13.72-32.2-10.47-71.87-10.47-71.87C313.74,100.84,268,0,268,0L220,83.14a40,40,0,0,1-40,69.28Z"/></g><g id="Big"><path class="cls-1" d="M207.17,105.43l-15,26a15,15,0,0,0,15-26Z"/></g><g id="Flame-2" data-name="Flame"><path class="cls-1" d="M82.68,290.75S15.57,277.09,55.8,367.61L70.61,342S50.89,311.17,82.68,290.75Z"/></g><g id="Body-2" data-name="Body"><path class="cls-1" d="M105.3,281.87c-2.43-1.61-24.25-14-24.25-14-13.63-10.7,2.62-48.74,1.72-51,0,0-34.86,28.37-48.89,30.66C16.26,250.09-7.83,255.81,2.48,226,8.75,207.78,18,169.1,28,155.84,49,127.86,95.42,129,95.42,129,157.86,10.84,268,0,268,0L220,83.14a40,40,0,1,0-40,69.28Z"/></g><g id="Big-2" data-name="Big"><path class="cls-1" d="M207.17,105.43l-15,26a15,15,0,1,1,15-26Z"/></g></g></g></g></g></g></svg>